<svg width="33" height="34" viewBox="0 0 33 34" fill="none" xmlns="http://www.w3.org/2000/svg">
<g id="Social Icons" clip-path="url(#clip0_65_795)">
<path id="Vector" d="M16.7911 0.830566C7.84152 0.830566 0.586304 8.08578 0.586304 17.0354C0.586304 24.6348 5.81851 31.0117 12.8767 32.7631V21.9876H9.53524V17.0354H12.8767V14.9015C12.8767 9.38605 15.3729 6.82959 20.7879 6.82959C21.8146 6.82959 23.5861 7.03117 24.3108 7.23211V11.7208C23.9284 11.6807 23.264 11.6606 22.4388 11.6606C19.7819 11.6606 18.7551 12.6672 18.7551 15.284V17.0354H24.0483L23.1389 21.9876H18.7551V33.1216C26.7791 32.1525 32.9966 25.3206 32.9966 17.0354C32.9959 8.08578 25.7407 0.830566 16.7911 0.830566Z" fill="white"/>
</g>
<defs>
<clipPath id="clip0_65_795">
<rect width="32.4096" height="32.4096" fill="white" transform="translate(0.586304 0.830566)"/>
</clipPath>
</defs>
</svg>
