<svg width="33" height="34" viewBox="0 0 33 34" fill="none" xmlns="http://www.w3.org/2000/svg">
<g id="Social Icons" clip-path="url(#clip0_65_797)">
<path id="Vector" d="M16.6845 3.7487C21.0142 3.7487 21.5269 3.76769 23.2297 3.84365C24.8122 3.91328 25.6667 4.17914 26.2365 4.40069C26.9897 4.69187 27.5341 5.04635 28.0975 5.60972C28.6672 6.17942 29.0153 6.71747 29.3065 7.47074C29.5281 8.04044 29.7939 8.90132 29.8635 10.4775C29.9395 12.1866 29.9585 12.6993 29.9585 17.0227C29.9585 21.3524 29.9395 21.8652 29.8635 23.5679C29.7939 25.1504 29.5281 26.005 29.3065 26.5747C29.0153 27.328 28.6608 27.8723 28.0975 28.4357C27.5278 29.0054 26.9897 29.3536 26.2365 29.6447C25.6667 29.8663 24.8059 30.1321 23.2297 30.2018C21.5206 30.2777 21.0079 30.2967 16.6845 30.2967C12.3548 30.2967 11.842 30.2777 10.1393 30.2018C8.55676 30.1321 7.70221 29.8663 7.13251 29.6447C6.37924 29.3536 5.83486 28.9991 5.27149 28.4357C4.70179 27.866 4.35364 27.328 4.06246 26.5747C3.84091 26.005 3.57505 25.1441 3.50542 23.5679C3.42946 21.8588 3.41047 21.3461 3.41047 17.0227C3.41047 12.693 3.42946 12.1803 3.50542 10.4775C3.57505 8.89499 3.84091 8.04044 4.06246 7.47074C4.35364 6.71747 4.70812 6.17309 5.27149 5.60972C5.84119 5.04002 6.37924 4.69187 7.13251 4.40069C7.70221 4.17914 8.56309 3.91328 10.1393 3.84365C11.842 3.76769 12.3548 3.7487 16.6845 3.7487ZM16.6845 0.830566C12.2851 0.830566 11.7344 0.849556 10.0063 0.925516C8.28457 1.00148 7.10086 1.28 6.0754 1.67879C5.00563 2.09657 4.10044 2.64728 3.20158 3.55247C2.29639 4.45133 1.74568 5.35652 1.3279 6.41996C0.929105 7.45175 0.650585 8.62913 0.574625 10.3509C0.498665 12.0853 0.479675 12.636 0.479675 17.0354C0.479675 21.4347 0.498665 21.9854 0.574625 23.7135C0.650585 25.4353 0.929105 26.619 1.3279 27.6445C1.74568 28.7142 2.29639 29.6194 3.20158 30.5183C4.10044 31.4171 5.00563 31.9742 6.06907 32.3856C7.10086 32.7844 8.27824 33.0629 10 33.1389C11.7281 33.2149 12.2788 33.2338 16.6781 33.2338C21.0775 33.2338 21.6282 33.2149 23.3563 33.1389C25.0781 33.0629 26.2618 32.7844 27.2872 32.3856C28.3507 31.9742 29.2559 31.4171 30.1547 30.5183C31.0536 29.6194 31.6106 28.7142 32.0221 27.6508C32.4209 26.619 32.6994 25.4416 32.7753 23.7199C32.8513 21.9918 32.8703 21.4411 32.8703 17.0417C32.8703 12.6423 32.8513 12.0916 32.7753 10.3635C32.6994 8.64179 32.4209 7.45808 32.0221 6.43262C31.6233 5.35652 31.0726 4.45133 30.1674 3.55247C29.2685 2.65361 28.3633 2.09657 27.2999 1.68512C26.2681 1.28633 25.0907 1.00781 23.369 0.931846C21.6345 0.849556 21.0838 0.830566 16.6845 0.830566Z" fill="white"/>
<path id="Vector_2" d="M16.6845 8.71143C12.0889 8.71143 8.36053 12.4398 8.36053 17.0354C8.36053 21.631 12.0889 25.3593 16.6845 25.3593C21.2801 25.3593 25.0084 21.631 25.0084 17.0354C25.0084 12.4398 21.2801 8.71143 16.6845 8.71143ZM16.6845 22.4349C13.7031 22.4349 11.285 20.0168 11.285 17.0354C11.285 14.0539 13.7031 11.6359 16.6845 11.6359C19.6659 11.6359 22.084 14.0539 22.084 17.0354C22.084 20.0168 19.6659 22.4349 16.6845 22.4349Z" fill="white"/>
<path id="Vector_3" d="M27.2809 8.38228C27.2809 9.45838 26.4074 10.3256 25.3376 10.3256C24.2615 10.3256 23.3943 9.45205 23.3943 8.38228C23.3943 7.30618 24.2678 6.43896 25.3376 6.43896C26.4074 6.43896 27.2809 7.31251 27.2809 8.38228Z" fill="white"/>
</g>
<defs>
<clipPath id="clip0_65_797">
<rect width="32.4096" height="32.4096" fill="white" transform="translate(0.479675 0.830566)"/>
</clipPath>
</defs>
</svg>
