<svg width="33" height="34" viewBox="0 0 33 34" fill="none" xmlns="http://www.w3.org/2000/svg">
<g id="Social Icons" clip-path="url(#clip0_65_801)">
<path id="Vector" fill-rule="evenodd" clip-rule="evenodd" d="M32.6763 17.0354C32.6763 25.985 25.4211 33.2402 16.4715 33.2402C7.5218 33.2402 0.266663 25.985 0.266663 17.0354C0.266663 8.0857 7.5218 0.830566 16.4715 0.830566C25.4211 0.830566 32.6763 8.0857 32.6763 17.0354ZM17.0522 12.7937C15.476 13.4492 12.3259 14.8061 7.60189 16.8643C6.83478 17.1694 6.43294 17.4678 6.39636 17.7596C6.33453 18.2528 6.9521 18.4469 7.79308 18.7114C7.90747 18.7474 8.026 18.7846 8.14751 18.8241C8.9749 19.0931 10.0879 19.4077 10.6665 19.4202C11.1913 19.4316 11.7771 19.2152 12.4238 18.7711C16.8376 15.7917 19.1161 14.2857 19.2591 14.2532C19.36 14.2303 19.4999 14.2015 19.5946 14.2857C19.6894 14.37 19.6801 14.5295 19.67 14.5722C19.6088 14.8331 17.1846 17.0868 15.9301 18.2531C15.539 18.6167 15.2616 18.8746 15.2049 18.9335C15.0779 19.0655 14.9484 19.1903 14.824 19.3103C14.0553 20.0513 13.4789 20.6069 14.8559 21.5144C15.5176 21.9504 16.0471 22.311 16.5754 22.6708C17.1523 23.0637 17.7277 23.4555 18.4722 23.9436C18.6619 24.0679 18.8431 24.1971 19.0195 24.3228C19.6909 24.8015 20.2941 25.2315 21.0393 25.1629C21.4723 25.1231 21.9196 24.7159 22.1468 23.5016C22.6836 20.6317 23.7388 14.4135 23.9827 11.8511C24.0041 11.6267 23.9772 11.3393 23.9556 11.2132C23.934 11.0871 23.8889 10.9074 23.725 10.7744C23.5308 10.6168 23.2311 10.5836 23.097 10.586C22.4875 10.5967 21.5524 10.9219 17.0522 12.7937Z" fill="white"/>
</g>
<defs>
<clipPath id="clip0_65_801">
<rect width="32.4096" height="32.4096" fill="white" transform="translate(0.266663 0.830566)"/>
</clipPath>
</defs>
</svg>
