<svg width="33" height="34" viewBox="0 0 33 34" fill="none" xmlns="http://www.w3.org/2000/svg">
<g id="Social Icons">
<path id="Vector" d="M0.37323 33.2402L2.65136 24.9177C1.24559 22.4815 0.50692 19.72 0.50827 16.8882C0.512321 8.03495 7.71671 0.830566 16.5686 0.830566C20.8642 0.831917 24.8965 2.50506 27.9295 5.54076C30.9611 8.57646 32.6302 12.6115 32.6289 16.903C32.6248 25.7576 25.4205 32.962 16.5686 32.962C13.8813 32.9606 11.2331 32.2868 8.8875 31.0066L0.37323 33.2402ZM9.28182 28.0992C11.5451 29.4429 13.7057 30.2477 16.5632 30.249C23.9202 30.249 29.9132 24.2614 29.9173 16.9003C29.92 9.52444 23.9553 3.54487 16.574 3.54217C9.2116 3.54217 3.22257 9.52985 3.21987 16.8895C3.21852 19.8942 4.09898 22.1439 5.57767 24.4977L4.22862 29.4239L9.28182 28.0992ZM24.6588 20.7206C24.5589 20.5532 24.2915 20.4532 23.8891 20.252C23.488 20.0508 21.5151 19.0799 21.1464 18.9462C20.7791 18.8125 20.5117 18.745 20.243 19.1474C19.9756 19.5485 19.2059 20.4532 18.9723 20.7206C18.7387 20.988 18.5037 21.0218 18.1026 20.8205C17.7016 20.6193 16.4079 20.1967 14.8752 18.8287C13.6828 17.7646 12.8766 16.4506 12.643 16.0482C12.4093 15.6472 12.6187 15.4297 12.8185 15.2299C12.9995 15.0503 13.2196 14.7613 13.4208 14.5263C13.6247 14.2941 13.6909 14.1266 13.8259 13.8579C13.9596 13.5905 13.8934 13.3555 13.7922 13.1543C13.6909 12.9545 12.8887 10.9788 12.5552 10.1753C12.2284 9.39345 11.8975 9.49879 11.6518 9.48663L10.882 9.47313C10.6147 9.47313 10.1798 9.57306 9.81253 9.97548C9.44522 10.3779 8.40811 11.3475 8.40811 13.3231C8.40811 15.2988 9.84629 17.2069 10.0461 17.4743C10.2474 17.7416 12.8752 21.7955 16.9008 23.5335C17.8582 23.9467 18.6063 24.1938 19.1884 24.3788C20.1498 24.684 21.0249 24.6408 21.7163 24.5382C22.4874 24.4234 24.0903 23.5673 24.4252 22.6301C24.7601 21.6915 24.7601 20.8881 24.6588 20.7206Z" fill="white"/>
</g>
</svg>
